HIERARCHY
ROOT Hips
{
	OFFSET 0.000000 0.000000 0.000000
	CHANNELS 6 Xposition Yposition Zposition Zrotation Yrotation Xrotation 
	JOINT LeftUpLeg_virtual
	{
		OFFSET 0.000000 0.000000 0.000000
		CHANNELS 3 Zrotation Yrotation Xrotation
		JOINT LeftUpLeg
		{
			OFFSET 10.205400 -3.823500 0.155100
			CHANNELS 3 Zrotation Yrotation Xrotation
			JOINT LeftLeg
			{
				OFFSET 0.708757 -12.982077 0.567790
				CHANNELS 3 Zrotation Yrotation Xrotation
				JOINT LeftFoot
				{
					OFFSET -0.708756 -10.717838 -2.184338
					CHANNELS 3 Zrotation Yrotation Xrotation
					JOINT LeftToeBase
					{
						OFFSET 0.108149 -7.191104 7.560241
						CHANNELS 3 Zrotation Yrotation Xrotation
						JOINT LeftToe_End
						{
							OFFSET 0.070230 0.081724 4.490308
							CHANNELS 3 Zrotation Yrotation Xrotation
							End Site
							{
								OFFSET 0.000000 0.000000 0.000000
							}
						}
					}
				}
			}
		}
	}
	JOINT RightUpLeg_virtual
	{
		OFFSET 0.000000 0.000000 0.000000
		CHANNELS 3 Zrotation Yrotation Xrotation
		JOINT RightUpLeg
		{
			OFFSET -10.205400 -3.823500 0.005500
			CHANNELS 3 Zrotation Yrotation Xrotation
			JOINT RightLeg
			{
				OFFSET -0.708756 -12.982134 0.610632
				CHANNELS 3 Zrotation Yrotation Xrotation
				JOINT RightFoot
				{
					OFFSET 0.708754 -10.717769 -1.945823
					CHANNELS 3 Zrotation Yrotation Xrotation
					JOINT RightToeBase
					{
						OFFSET -0.108140 -7.191069 7.372968
						CHANNELS 3 Zrotation Yrotation Xrotation
						JOINT RightToe_End
						{
							OFFSET -0.070227 0.081735 4.479403
							CHANNELS 3 Zrotation Yrotation Xrotation
							End Site
							{
								OFFSET 0.000000 0.000000 0.000000
							}
						}
					}
				}
			}
		}
	}
	JOINT Spine_virtual
	{
		OFFSET 0.000000 0.000000 0.000000
		CHANNELS 3 Zrotation Yrotation Xrotation
		JOINT Spine
		{
			OFFSET 0.000000 6.876099 0.125700
			CHANNELS 3 Zrotation Yrotation Xrotation
			JOINT Spine1
			{
				OFFSET 0.000000 5.730043 0.104720
				CHANNELS 3 Zrotation Yrotation Xrotation
				JOINT Spine1_split
				{
					OFFSET 0.000000 5.730043 0.104720
					CHANNELS 3 Zrotation Yrotation Xrotation
					JOINT Spine2
					{
						OFFSET 0.000000 5.730043 0.104720
						CHANNELS 3 Zrotation Yrotation Xrotation
						JOINT Neck_virtual
						{
							OFFSET 0.000000 0.000000 0.000000
							CHANNELS 3 Zrotation Yrotation Xrotation
							JOINT Neck
							{
								OFFSET 0.000000 10.314075 0.188496
								CHANNELS 3 Zrotation Yrotation Xrotation
								JOINT Head
								{
									OFFSET 0.000000 7.643700 -2.377400
									CHANNELS 3 Zrotation Yrotation Xrotation
									JOINT HeadTop_End
									{
										OFFSET 0.000000 43.788605 -13.619600
										CHANNELS 3 Zrotation Yrotation Xrotation
										End Site
										{
											OFFSET 0.000000 0.000000 0.000000
										}
									}
								}
							}
						}
						JOINT LeftShoulder_virtual
						{
							OFFSET 0.000000 0.000000 0.000000
							CHANNELS 3 Zrotation Yrotation Xrotation
							JOINT LeftShoulder
							{
								OFFSET 2.196100 4.412489 0.087492
								CHANNELS 3 Zrotation Yrotation Xrotation
								JOINT LeftShoulder_split
								{
									OFFSET 2.196100 4.412489 0.087492
									CHANNELS 3 Zrotation Yrotation Xrotation
									JOINT LeftArm
									{
										OFFSET 8.771219 -2.981674 -0.026999
										CHANNELS 3 Zrotation Yrotation Xrotation
										JOINT LeftForeArm
										{
											OFFSET 8.512804 0.000000 -0.000000
											CHANNELS 3 Zrotation Yrotation Xrotation
											JOINT LeftHand
											{
												OFFSET 18.484802 0.000000 -0.000000
												CHANNELS 3 Zrotation Yrotation Xrotation
												End Site
												{
													OFFSET 0.000000 0.000000 0.000000
												}
											}
										}
									}
								}
							}
						}
						JOINT RightShoulder_virtual
						{
							OFFSET 0.000000 0.000000 0.000000
							CHANNELS 3 Zrotation Yrotation Xrotation
							JOINT RightShoulder
							{
								OFFSET -2.196100 4.412496 0.070690
								CHANNELS 3 Zrotation Yrotation Xrotation
								JOINT RightShoulder_split
								{
									OFFSET -2.196100 4.412496 0.070690
									CHANNELS 3 Zrotation Yrotation Xrotation
									JOINT RightArm
									{
										OFFSET -8.771282 -2.981682 -0.094208
										CHANNELS 3 Zrotation Yrotation Xrotation
										JOINT RightForeArm
										{
											OFFSET -8.494598 0.000000 0.000000
											CHANNELS 3 Zrotation Yrotation Xrotation
											JOINT RightHand
											{
												OFFSET -18.483803 0.000000 0.000001
												CHANNELS 3 Zrotation Yrotation Xrotation
												End Site
												{
													OFFSET 0.000000 0.000000 0.000000
												}
											}
										}
									}
								}
							}
						}
					}
				}
			}
		}
	}
}
MOTION
Frames: 5
Frame Time: 0.033333
1.321295 24.124372 64.255951 0.015100 -0.075774 0.042029 0.731546 -5.809523 10.624115 23.777609 13.074449 38.677944 13.236160 16.858576 30.741543 -9.641419 1.101804 10.792964 -12.278021 -24.464071 -26.472788 0.000000 0.000000 0.000000 -6.137196 -19.323774 15.176587 9.554714 -6.638045 -82.370529 -3.683841 10.463882 74.910461 13.382063 3.639215 -21.106886 -19.451130 -0.586160 21.719572 0.000000 0.000000 0.000000 -3.096612 -19.208799 5.999138 0.143752 -2.354835 1.858771 -1.546022 -6.165551 3.954128 0.421098 1.315174 -1.510692 -0.022912 0.006440 0.028416 0.335491 -3.700197 2.309695 -2.759717 0.065326 -0.625193 12.951276 16.618917 -3.519368 0.000000 0.000000 0.000000 -0.181022 -1.379515 8.069370 -21.342871 -29.098619 2.082621 6.069989 5.210520 -0.430904 -3.317695 -25.928022 -59.001335 21.819027 -51.729488 -20.326641 0.000000 0.000000 0.000000 6.855757 -6.451544 13.670291 -2.553040 16.213902 -6.502492 -14.882020 2.978581 -1.306193 6.826755 11.615216 -27.834480 0.484084 63.658657 0.796239 0.000000 0.000000 0.000000 
0.984060 23.888453 65.737450 -0.007391 0.067299 0.215397 -1.875163 -11.556611 13.137463 24.040699 15.097678 40.792820 15.182184 17.647022 25.970900 -7.173403 1.351042 12.022805 -13.171759 -20.795815 -10.686243 0.000000 0.000000 0.000000 -9.589382 -24.411224 16.830360 10.757513 -2.767822 -80.755005 -1.622544 8.363826 76.404930 11.142019 2.071261 -22.542727 -18.778332 2.355363 14.403570 0.000000 0.000000 0.000000 -5.250447 -24.521273 8.849526 -0.104447 -1.694211 1.983112 -0.725815 -9.441333 2.972168 0.574362 -0.457205 -1.199711 0.009296 -0.020521 0.015911 0.829805 -7.190865 2.202995 -2.927729 4.382413 -0.163949 13.813469 26.164024 -0.694031 0.000000 0.000000 0.000000 1.243113 -4.309648 8.305999 -20.804474 -37.171825 3.860730 6.929497 5.498538 -1.285849 -2.346220 -36.195076 -54.524406 10.306978 -25.303961 -4.979450 0.000000 0.000000 0.000000 8.498155 -9.906034 13.687717 8.415558 13.668550 -3.957792 -17.232513 0.278825 -2.464882 8.434120 -12.561393 -16.123041 0.407807 63.649326 0.716993 0.000000 0.000000 0.000000 
0.627428 23.732725 67.283295 0.109424 0.073851 0.227363 -4.846800 -16.814360 16.133238 25.066319 17.329765 41.263180 15.699170 18.005024 23.275438 -6.880484 2.188843 13.699945 -12.617749 -12.844618 8.283712 0.000000 0.000000 0.000000 -12.880060 -28.923889 18.506048 11.257200 0.449586 -78.657120 2.450193 7.380891 77.767052 9.306739 -0.190536 -23.474558 -15.077334 0.943593 6.093977 0.000000 0.000000 0.000000 -8.028102 -28.712355 12.258492 -0.386700 -0.932345 2.146779 0.258718 -12.024615 2.112398 0.552925 -1.892491 -0.846980 -0.019746 -0.004825 0.090213 1.335652 -9.763965 2.056159 -3.317816 8.124208 -0.044302 14.730227 34.135273 2.532221 0.000000 0.000000 0.000000 2.842222 -6.592200 8.095049 -19.030096 -42.512257 4.899605 6.927583 6.272398 -2.124513 -4.169290 -46.322952 -48.283142 8.265809 -5.357745 3.206242 0.000000 0.000000 0.000000 9.591486 -12.682746 13.127619 15.920330 11.208032 -2.253709 -17.421053 -2.378232 -4.737151 6.736594 -28.604326 -6.839014 0.421581 63.641201 0.733036 0.000000 0.000000 0.000000 
0.259830 23.632839 69.002220 0.125107 -0.040028 0.076426 -8.049406 -22.037418 19.238129 26.547003 19.746090 39.820057 14.436084 18.212221 23.373512 -9.370482 3.279334 16.323322 -9.663182 -3.048870 25.833008 0.000000 0.000000 0.000000 -16.438841 -33.425045 20.420288 10.450480 3.255069 -75.469078 6.064419 5.459628 77.838310 8.590245 -1.139989 -23.316278 -7.521704 1.374248 -1.443434 0.000000 0.000000 0.000000 -11.448813 -32.832684 15.909359 -0.559168 -0.712629 2.102836 1.261817 -13.867572 1.434844 0.449815 -2.965789 -0.477757 -0.009482 0.004101 0.057421 1.590888 -11.353239 2.057792 -3.959906 10.930319 -0.232725 16.219250 40.045147 6.027447 0.000000 0.000000 0.000000 4.285376 -8.134773 7.472053 -17.234180 -45.034897 5.443982 5.946640 7.262321 -3.021009 -9.507288 -54.354168 -40.755989 8.436439 4.795864 9.611191 0.000000 0.000000 0.000000 9.999848 -14.440104 12.531569 20.324137 9.615088 -0.822297 -17.145506 -4.592442 -6.112821 4.452871 -38.244392 -0.972291 0.385974 63.642300 0.700914 0.000000 0.000000 0.000000 
-0.188387 23.664452 70.874199 -0.015419 -0.021196 0.156421 -11.753213 -27.829929 21.996437 28.711258 22.565613 36.283951 12.747811 17.898691 27.668249 -12.830249 5.360896 18.871647 -4.602213 5.408685 37.691319 0.000000 0.000000 0.000000 -20.142654 -37.730019 22.773859 9.060811 5.446506 -71.433586 10.085891 3.201201 76.591614 6.163939 -1.054413 -22.536974 0.538702 3.656488 -5.947345 0.000000 0.000000 0.000000 -14.883448 -37.389175 18.993198 -0.621200 -0.762413 2.181808 2.180212 -14.580363 1.020561 0.433683 -3.592641 -0.315032 0.004833 0.002379 0.006756 1.570005 -12.148149 2.056492 -4.715691 12.400142 -0.535402 18.368937 43.615654 9.571799 0.000000 0.000000 0.000000 5.311211 -9.115461 6.411328 -16.266758 -45.364220 6.226340 4.137307 8.454123 -4.047230 -16.244726 -59.128883 -33.656506 8.079760 6.943076 14.154876 0.000000 0.000000 0.000000 9.824829 -15.150084 11.825914 22.757582 9.029817 0.711790 -17.189377 -5.840046 -6.752948 3.375189 -43.315952 1.109973 0.511093 63.644806 0.838189 0.000000 0.000000 0.000000 
